# xmcd
#
# Track frame offsets: 
#        150
#        10530
#        20918
#        33620
#        45874
#        58905
#        71084
#        81616
#        93171
#        103855
#        115130
#        124905
#        135038
#        146414
#        159681
#        169983
#        180144
#        190777
#        199911
#        212495
#
# Disc length: 3003 seconds
#
# Revision: 0
# Processed by: cddbd v1.5.2PL0 Copyright (c) Steve Scherf et al.
# Submitted via: ExactAudioCopy v0.99pb5
#
DISCID=130bb914
DTITLE=Various Artist - Country and Western Hits And Rarities CD09
DYEAR=1900
DGENRE=
TTITLE0=Ned Miller - From Jack To A King
TTITLE1=Don Gibson - Don't Tell Me Your Troubles
TTITLE2=Johnny Horton - Johnny Freedom
TTITLE3=George Jones - Why Baby Why
TTITLE4=Johnny Cash - Tennessee Flat Top Box
TTITLE5=Arlie Duff - You All Come
TTITLE6=Hank Snow - The Gold Rush Is Over
TTITLE7=Merrill Moore - Red Light
TTITLE8=Bob Luman - Throwin' Kisses
TTITLE9=Ernest Tubb - The Yellow Roses Of Texas
TTITLE10=Johnny Horton - Got The Bull By The Horns
TTITLE11=Marvin and Patty Rainwater - Can I Count Of Your Love
TTITLE12=Tex Ritter - High Noon
TTITLE13=Rudy Grayzell - Looking At The Moon And Wishing On A Star
TTITLE14=Don Gibson - Big Hearted Me
TTITLE15=Lattie Moore - Juke Joint Johnny
TTITLE16=Johnny and Jack - South In New Orleans
TTITLE17=Johnny Cash - I Want To Go Home
TTITLE18=Ray Price - Run Boy
TTITLE19=Johnny Horton - North To Alaska
EXTD=
EXTT0=
EXTT1=
EXTT2=
EXTT3=
EXTT4=
EXTT5=
EXTT6=
EXTT7=
EXTT8=
EXTT9=
EXTT10=
EXTT11=
EXTT12=
EXTT13=
EXTT14=
EXTT15=
EXTT16=
EXTT17=
EXTT18=
EXTT19=
PLAYORDER=
